<svg width="151" height="47" viewBox="0 0 151 47" fill="none" xmlns="http://www.w3.org/2000/svg">
<path d="M8.44769 0V46.3215H0V0H8.44769Z" fill="#009951"/>
<path d="M23.5531 26.2368V46.3215H15.2419V11.5804H23.1629V17.7098H23.514C24.1774 15.6893 25.2894 14.091 26.8502 12.9148C28.411 11.7236 30.3034 11.128 32.5275 11.128C34.6085 11.128 36.4229 11.6558 37.9707 12.7113C39.5185 13.7668 40.7216 15.2746 41.58 17.2348C42.4384 19.18 42.8676 21.5021 42.8676 24.2012V46.3215H34.5565V25.9201C34.5695 23.794 34.1013 22.1354 33.1518 20.9442C32.2023 19.7379 30.8952 19.1347 29.2304 19.1347C28.1118 19.1347 27.1233 19.4137 26.2649 19.9716C25.4195 20.5295 24.7562 21.3438 24.2749 22.4143C23.8067 23.4698 23.5661 24.744 23.5531 26.2368Z" fill="#009951"/>
<path d="M65.3574 11.5804V18.8181H47.311V11.5804H65.3574ZM51.408 3.25698H59.7191V35.6458C59.7191 36.5355 59.8362 37.2291 60.0703 37.7267C60.3044 38.2092 60.6296 38.5484 61.0458 38.7445C61.475 38.9405 61.9692 39.0385 62.5285 39.0385C62.9187 39.0385 63.3089 39.0008 63.6991 38.9254C64.0893 38.8349 64.3884 38.7671 64.5965 38.7218L65.9037 45.8917C65.4875 46.0425 64.9022 46.2159 64.1478 46.4119C63.3934 46.623 62.4765 46.7512 61.3969 46.7964C59.3939 46.8869 57.6381 46.5778 56.1293 45.8691C54.6336 45.1604 53.4695 44.0597 52.6371 42.5669C51.8047 41.0741 51.395 39.1893 51.408 36.9124V3.25698Z" fill="#009951"/>
<path d="M70.7713 46.3215V11.5804H78.8288V17.642H79.141C79.6873 15.4857 80.6042 13.8572 81.8919 12.7565C83.1795 11.6407 84.6622 11.0828 86.3401 11.0828C86.7563 11.0828 87.205 11.1129 87.6862 11.1732C88.1675 11.2336 88.5902 11.3165 88.9544 11.422V19.9716C88.5642 19.8359 88.0244 19.7153 87.3351 19.6097C86.6457 19.5042 86.0149 19.4514 85.4426 19.4514C84.22 19.4514 83.1275 19.7605 82.165 20.3787C81.2155 20.9819 80.4611 21.8263 79.9019 22.9119C79.3556 23.9976 79.0825 25.2491 79.0825 26.6665V46.3215H70.7713Z" fill="#009951"/>
<path d="M131.1 11.5804L136.602 23.7262L142.24 11.5804H150.766L142.084 28.9509L151 46.3215H142.513L136.602 34.3114L130.788 46.3215H122.204L131.1 28.9509L122.516 11.5804H131.1Z" fill="#009951"/>
<path fill-rule="evenodd" clip-rule="evenodd" d="M97.5532 44.8287C99.7773 46.2762 102.431 47 105.513 47C107.984 47 110.163 46.5627 112.049 45.6882C113.948 44.7985 115.496 43.5621 116.692 41.9788C117.902 40.3805 118.702 38.5107 119.092 36.3696L111.405 35.7815C111.119 36.6561 110.703 37.3949 110.156 37.9981C109.61 38.6012 108.953 39.0536 108.186 39.3551C107.419 39.6567 106.573 39.8075 105.65 39.8075C104.258 39.8075 103.055 39.4682 102.04 38.7897C101.026 38.1112 100.239 37.1461 99.6798 35.8946C99.1335 34.6431 98.8604 33.1578 98.8604 31.4389V31.4163H119.268V28.77C119.268 25.8146 118.91 23.2361 118.194 21.0346C117.479 18.8181 116.478 16.9785 115.19 15.5159C113.915 14.0533 112.42 12.9601 110.703 12.2363C108.999 11.4974 107.159 11.128 105.182 11.128C102.242 11.128 99.6798 11.8819 97.4947 13.3898C95.3226 14.8977 93.6383 17.0011 92.4417 19.7002C91.2451 22.3993 90.6468 25.5356 90.6468 29.1092C90.6468 32.7733 91.2451 35.9474 92.4417 38.6314C93.6383 41.3003 95.3421 43.3661 97.5532 44.8287ZM98.8682 25.4451H111.444C111.444 24.0579 111.184 22.829 110.664 21.7584C110.143 20.6878 109.422 19.851 108.498 19.2478C107.588 18.6296 106.528 18.3205 105.318 18.3205C104.056 18.3205 102.938 18.6598 101.962 19.3383C101 20.0018 100.246 20.8989 99.6993 22.0298C99.1954 23.0592 98.9183 24.1976 98.8682 25.4451ZM98.8604 25.7618V31.4163H93.9635V25.4451H98.8682C98.864 25.5499 98.8614 25.6555 98.8604 25.7618Z" fill="#009951"/>
</svg>
