<svg width="223" height="64" viewBox="0 0 223 64" fill="none" xmlns="http://www.w3.org/2000/svg">
<rect width="64" height="64" rx="20" fill="#009951"/>
<path d="M8.33763 46.4054L9.66326 40.6667C9.66326 40.6667 9.43367 43.0999 9.66326 44.6396C9.74085 45.16 9.77751 45.4549 9.92839 45.964C10.0853 46.4932 10.2093 46.7842 10.4586 47.2883C10.7231 47.823 10.8342 48.1519 11.254 48.6126C11.8798 49.2993 12.453 49.5448 13.375 49.9369C13.8716 50.1481 14.1787 50.2152 14.7007 50.3784C15.6202 50.6659 16.1179 50.9061 17.0868 51.0405C18.1081 51.1822 18.7027 51.0405 19.7381 51.0405H22.1242C22.1242 51.0405 23.7407 50.911 24.7755 50.8198C25.7079 50.7377 26.2332 50.7081 27.1617 50.5991C29.8974 50.278 34.055 49.2748 34.055 49.2748C34.055 49.2748 34.4215 49.1903 34.5852 49.0541C34.7489 48.9178 34.7894 48.7986 34.8503 48.6126C34.9321 48.3631 34.9321 48.1999 34.8503 47.9505C34.7894 47.7645 34.7489 47.6453 34.5852 47.509C34.4215 47.3727 34.055 47.2883 34.055 47.2883L27.1617 48.3919C27.1617 48.3919 25.7176 48.7054 24.7755 48.8333C23.7485 48.9728 23.1636 49.0133 22.1242 49.0541C21.1934 49.0906 19.7381 49.0541 19.7381 49.0541C19.7381 49.0541 18.0922 49.0565 17.0868 48.8333C16.1015 48.6146 15.4537 48.5229 14.7007 47.9505C13.8458 47.3007 13.6879 46.6711 13.375 45.7432C12.9273 44.4154 13.375 42.2117 13.375 42.2117L17.8822 18.5946L8.60276 19.9189L36.9714 8L34.055 19.6982H29.8129L24.2453 44.1982C24.2453 44.1982 24.1985 44.8384 24.5104 45.0811C24.7496 45.2672 25.3058 45.3018 25.3058 45.3018H27.6919C27.6919 45.3018 28.0585 45.2174 28.2222 45.0811C28.4537 44.8883 28.4873 44.4189 28.4873 44.4189L31.6688 27.2027L41.4785 26.982L40.6831 30.0721H41.4785C41.4785 30.0721 42.7173 29.0749 43.5995 28.527C44.198 28.1554 44.5236 27.924 45.1903 27.6441C46.1361 27.2471 46.7537 27.1511 47.7779 26.9919L47.8416 26.982C49.6736 26.697 51.8184 26.7613 52.6139 26.982C53.4093 27.2027 53.7242 27.3891 54.2046 27.8649C54.8367 28.4908 55 29.8514 55 29.8514L51.8185 45.964L42.2739 46.8468C42.2739 46.8468 44.9251 33.6036 44.9252 33.3829C44.9253 33.1622 44.8916 32.9135 44.66 32.7207C44.4963 32.5844 44.3447 32.5716 44.1298 32.5C43.1685 32.1799 42.4608 32.2274 41.4785 32.5C41.0392 32.6219 40.7454 32.6689 40.418 32.9414C40.0906 33.214 39.8878 33.8243 39.8878 33.8243L36.176 52.3649V55.0135L33.5247 57L34.055 52.8063L33.2596 53.2477C33.2596 53.2477 30.5373 54.1173 28.7524 54.5721L28.6817 54.5901C27.1885 54.9706 26.3258 55.1904 24.7755 55.455C23.4414 55.6826 22.6818 55.7668 21.3289 55.8964C19.9877 56.0248 19.2313 56.0758 17.8822 56.1171C16.6406 56.1552 15.9281 56.2778 14.7007 56.1171C13.6328 55.9774 12.9964 55.8889 12.0494 55.455C11.0852 55.0131 10.6292 54.6164 9.92839 53.9099C9.10232 53.0771 8.75148 52.5056 8.33763 51.482C7.57796 49.603 8.33763 46.4054 8.33763 46.4054Z" fill="black"/>
<path d="M80.4477 8.5V54.8215H72V8.5H80.4477Z" fill="white"/>
<path d="M95.5531 34.7368V54.8215H87.2419V20.0804H95.1629V26.2098H95.514C96.1774 24.1893 97.2894 22.591 98.8502 21.4148C100.411 20.2236 102.303 19.628 104.528 19.628C106.609 19.628 108.423 20.1558 109.971 21.2113C111.518 22.2668 112.722 23.7746 113.58 25.7348C114.438 27.68 114.868 30.0021 114.868 32.7012V54.8215H106.557V34.4201C106.57 32.294 106.101 30.6354 105.152 29.4442C104.202 28.2379 102.895 27.6347 101.23 27.6347C100.112 27.6347 99.1233 27.9137 98.2649 28.4716C97.4195 29.0295 96.7562 29.8438 96.2749 30.9143C95.8067 31.9698 95.5661 33.244 95.5531 34.7368Z" fill="white"/>
<path d="M137.357 20.0804V27.3181H119.311V20.0804H137.357ZM123.408 11.757H131.719V44.1458C131.719 45.0355 131.836 45.7291 132.07 46.2267C132.304 46.7092 132.63 47.0484 133.046 47.2445C133.475 47.4405 133.969 47.5385 134.529 47.5385C134.919 47.5385 135.309 47.5008 135.699 47.4254C136.089 47.3349 136.388 47.2671 136.597 47.2218L137.904 54.3917C137.487 54.5425 136.902 54.7159 136.148 54.9119C135.393 55.123 134.476 55.2512 133.397 55.2964C131.394 55.3869 129.638 55.0778 128.129 54.3691C126.634 53.6604 125.47 52.5597 124.637 51.0669C123.805 49.5741 123.395 47.6893 123.408 45.4124V11.757Z" fill="white"/>
<path d="M142.771 54.8215V20.0804H150.829V26.142H151.141C151.687 23.9857 152.604 22.3572 153.892 21.2565C155.179 20.1407 156.662 19.5828 158.34 19.5828C158.756 19.5828 159.205 19.6129 159.686 19.6732C160.167 19.7336 160.59 19.8165 160.954 19.922V28.4716C160.564 28.3359 160.024 28.2153 159.335 28.1097C158.646 28.0042 158.015 27.9514 157.443 27.9514C156.22 27.9514 155.127 28.2605 154.165 28.8787C153.216 29.4819 152.461 30.3263 151.902 31.4119C151.356 32.4976 151.082 33.7491 151.082 35.1665V54.8215H142.771Z" fill="white"/>
<path d="M177.513 55.5C174.431 55.5 171.777 54.7762 169.553 53.3287C167.342 51.8661 165.638 49.8003 164.442 47.1314C163.245 44.4474 162.647 41.2733 162.647 37.6092C162.647 34.0356 163.245 30.8993 164.442 28.2002C165.638 25.5011 167.323 23.3977 169.495 21.8898C171.68 20.3819 174.242 19.628 177.182 19.628C179.159 19.628 180.999 19.9974 182.703 20.7363C184.42 21.4601 185.915 22.5533 187.19 24.0159C188.478 25.4785 189.479 27.3181 190.194 29.5346C190.91 31.7361 191.268 34.3146 191.268 37.27V39.9163H165.963V33.9451H183.444C183.444 32.5579 183.184 31.329 182.664 30.2584C182.143 29.1878 181.422 28.351 180.498 27.7478C179.588 27.1296 178.528 26.8205 177.318 26.8205C176.056 26.8205 174.938 27.1598 173.962 27.8383C173 28.5018 172.246 29.3989 171.699 30.5298C171.153 31.6457 170.873 32.8896 170.86 34.2618V39.9389C170.86 41.6578 171.134 43.1431 171.68 44.3946C172.239 45.6461 173.026 46.6112 174.04 47.2897C175.055 47.9682 176.258 48.3075 177.65 48.3075C178.573 48.3075 179.419 48.1567 180.186 47.8551C180.953 47.5536 181.61 47.1012 182.156 46.4981C182.703 45.8949 183.119 45.1561 183.405 44.2815L191.092 44.8696C190.702 47.0107 189.902 48.8805 188.692 50.4788C187.496 52.0621 185.948 53.2985 184.049 54.1882C182.163 55.0627 179.984 55.5 177.513 55.5Z" fill="white"/>
<path d="M203.1 20.0804L208.602 32.2262L214.24 20.0804H222.766L214.084 37.4509L223 54.8215H214.513L208.602 42.8114L202.788 54.8215H194.204L203.1 37.4509L194.516 20.0804H203.1Z" fill="white"/>
</svg>
